<?xml version="1.0" standalone="no"?><svg xmlns="http://www.w3.org/2000/svg" viewBox="0 0 1440 320"><path fill="#eceff4" fill-opacity="1" d="M0,128L26.7,112C53.3,96,107,64,160,58.7C213.3,53,267,75,320,74.7C373.3,75,427,53,480,42.7C533.3,32,587,32,640,80C693.3,128,747,224,800,240C853.3,256,907,192,960,176C1013.3,160,1067,192,1120,202.7C1173.3,213,1227,203,1280,197.3C1333.3,192,1387,192,1413,192L1440,192L1440,0L1413.3,0C1386.7,0,1333,0,1280,0C1226.7,0,1173,0,1120,0C1066.7,0,1013,0,960,0C906.7,0,853,0,800,0C746.7,0,693,0,640,0C586.7,0,533,0,480,0C426.7,0,373,0,320,0C266.7,0,213,0,160,0C106.7,0,53,0,27,0L0,0Z"></path></svg>